<?xml version="1.0" standalone="no"?>
<!DOCTYPE svg PUBLIC "-//W3C//DTD SVG 20010904//EN"
 "http://www.w3.org/TR/2001/REC-SVG-20010904/DTD/svg10.dtd">
<svg version="1.0" xmlns="http://www.w3.org/2000/svg"
 width="870.000000pt" height="828.000000pt" viewBox="0 0 870.000000 828.000000"
 preserveAspectRatio="xMidYMid meet">
<metadata>
Created by potrace 1.10, written by Peter Selinger 2001-2011
</metadata>
<g transform="translate(0.000000,828.000000) scale(0.100000,-0.100000)"
fill="#6366f1" stroke="none">
<path d="M5486 8082 c-8 -14 15 -21 39 -11 11 4 15 8 8 8 -6 1 -18 4 -26 7 -8
3 -18 1 -21 -4z"/>
<path d="M5560 8045 c7 -8 23 -15 35 -15 12 0 28 -7 35 -15 7 -8 18 -15 25
-15 11 0 158 -72 225 -110 8 -5 22 -11 30 -14 8 -4 29 -15 45 -26 17 -11 41
-25 55 -31 14 -5 38 -21 55 -33 16 -12 37 -26 45 -29 8 -4 29 -16 45 -27 17
-11 40 -25 53 -31 12 -7 22 -16 22 -21 0 -4 5 -8 10 -8 36 0 392 -302 540
-457 144 -152 350 -405 350 -432 0 -5 7 -11 15 -15 8 -3 15 -13 15 -22 0 -9
12 -28 26 -43 23 -25 37 -46 64 -96 6 -11 19 -33 30 -50 11 -16 25 -42 31 -57
6 -16 15 -28 20 -28 5 0 9 -9 9 -19 0 -11 4 -22 9 -25 15 -9 115 -221 171
-361 17 -44 38 -93 46 -108 8 -16 14 -38 14 -50 0 -12 7 -31 15 -41 8 -11 15
-34 15 -50 0 -17 7 -40 15 -50 8 -11 15 -32 15 -48 0 -15 6 -42 14 -60 8 -18
21 -69 31 -113 9 -44 23 -105 31 -136 8 -30 14 -76 14 -100 0 -25 6 -65 14
-90 36 -113 36 -859 0 -948 -8 -18 -14 -59 -14 -90 -1 -31 -7 -74 -15 -96 -8
-22 -15 -49 -15 -60 0 -29 -30 -154 -46 -193 -8 -18 -14 -45 -14 -60 0 -16 -7
-37 -15 -48 -8 -10 -15 -33 -15 -50 0 -16 -7 -39 -15 -50 -8 -10 -15 -27 -15
-36 0 -10 -6 -32 -14 -50 -8 -18 -22 -53 -31 -78 -17 -45 -28 -73 -58 -140
-16 -37 -112 -234 -127 -260 -5 -8 -11 -22 -14 -30 -4 -8 -15 -28 -26 -45 -11
-16 -24 -39 -29 -50 -5 -11 -21 -37 -35 -58 -14 -21 -26 -40 -26 -42 0 -14
-209 -301 -274 -376 -17 -19 -41 -47 -53 -62 -29 -34 -50 -26 -64 25 -6 23
-14 48 -19 57 -4 9 -16 36 -25 61 -9 25 -23 60 -31 78 -8 18 -14 41 -14 50 0
10 -6 26 -14 37 -7 11 -16 31 -19 45 -3 14 -15 50 -26 80 -48 121 -53 136 -58
162 -3 15 -11 33 -19 39 -8 6 -14 26 -14 44 0 18 -7 38 -15 45 -8 7 -15 23
-15 35 0 13 -6 36 -14 52 -27 54 -46 104 -46 121 0 9 -7 26 -15 36 -8 11 -15
29 -15 40 0 12 -7 30 -15 40 -8 11 -15 32 -15 47 0 14 -6 32 -14 38 -8 6 -16
24 -19 39 -6 33 -33 110 -47 134 -6 10 -10 26 -10 35 0 10 -7 27 -15 37 -8 11
-15 29 -15 41 0 12 -7 30 -15 41 -8 10 -15 28 -15 39 0 11 -6 29 -14 40 -7 11
-16 31 -19 45 -3 14 -19 61 -35 105 -17 44 -36 96 -42 115 -7 19 -18 48 -26
63 -8 16 -14 39 -14 52 0 12 -6 28 -14 34 -8 6 -16 24 -19 39 -7 34 -59 180
-75 209 -7 12 -12 30 -12 40 0 11 -7 28 -15 39 -8 10 -15 30 -15 44 0 14 -7
34 -15 44 -8 11 -15 29 -15 41 0 12 -7 30 -15 41 -8 10 -15 26 -15 34 0 8 -7
28 -15 44 -8 15 -15 36 -15 45 0 10 -7 26 -15 37 -8 10 -15 31 -15 45 0 15 -7
32 -15 39 -8 7 -15 25 -15 39 0 15 -7 36 -15 47 -8 10 -15 25 -15 32 0 8 -6
28 -14 45 -8 18 -24 63 -37 100 -12 37 -26 70 -30 73 -5 3 -9 15 -9 27 0 13
-6 31 -14 42 -7 11 -16 31 -19 45 -6 24 -53 157 -75 213 -7 16 -12 34 -12 40
0 7 -7 21 -15 31 -8 11 -15 32 -15 47 0 14 -7 32 -15 39 -8 7 -15 23 -15 35 0
13 -6 36 -14 52 -27 54 -46 104 -46 121 0 9 -7 26 -15 36 -8 11 -15 32 -15 47
0 14 -7 32 -15 39 -8 7 -15 25 -15 40 0 15 -7 33 -15 40 -8 7 -15 25 -15 39 0
15 -7 36 -15 47 -8 10 -15 26 -15 34 0 8 -7 28 -15 44 -8 15 -15 34 -15 42 0
14 -20 66 -46 117 -8 16 -14 38 -14 50 0 12 -7 31 -15 41 -8 11 -15 29 -15 41
0 12 -7 30 -15 41 -8 10 -15 27 -15 37 0 9 -9 26 -20 37 -20 20 -33 20 -714
20 l-695 0 -20 -26 c-12 -15 -21 -34 -21 -43 0 -10 -7 -26 -15 -37 -8 -10 -15
-31 -15 -45 0 -15 -7 -32 -15 -39 -8 -7 -15 -24 -15 -37 0 -14 -6 -37 -14 -51
-7 -15 -19 -43 -25 -62 -7 -19 -26 -71 -43 -115 -16 -44 -32 -91 -35 -105 -3
-14 -12 -34 -19 -45 -8 -11 -14 -29 -14 -40 0 -12 -7 -30 -15 -41 -8 -10 -15
-27 -15 -36 0 -10 -7 -34 -16 -55 -40 -93 -64 -157 -71 -195 -3 -15 -11 -33
-19 -39 -8 -6 -14 -23 -14 -38 0 -14 -7 -35 -15 -45 -8 -11 -15 -29 -15 -41 0
-12 -7 -30 -15 -41 -8 -10 -15 -28 -15 -39 0 -11 -7 -29 -15 -39 -8 -11 -15
-29 -15 -41 0 -12 -7 -30 -15 -41 -8 -10 -15 -31 -15 -45 0 -15 -7 -32 -15
-39 -8 -7 -15 -24 -15 -39 0 -15 -6 -35 -14 -46 -7 -11 -16 -31 -19 -45 -3
-14 -15 -50 -26 -80 -44 -113 -53 -136 -58 -160 -3 -14 -12 -34 -19 -45 -8
-11 -14 -29 -14 -40 0 -11 -6 -29 -13 -40 -7 -11 -21 -47 -32 -80 -11 -33 -25
-71 -32 -85 -7 -14 -13 -35 -13 -46 0 -12 -7 -27 -15 -34 -8 -7 -15 -25 -15
-40 0 -15 -7 -33 -15 -40 -8 -7 -15 -24 -15 -39 0 -15 -6 -35 -13 -46 -7 -11
-22 -47 -32 -80 -11 -33 -25 -69 -32 -80 -7 -11 -13 -29 -13 -40 0 -12 -7 -30
-15 -41 -8 -10 -15 -30 -15 -44 0 -14 -7 -34 -15 -44 -8 -11 -15 -29 -15 -41
0 -12 -7 -30 -15 -41 -8 -10 -15 -27 -15 -36 0 -17 -19 -67 -46 -121 -8 -16
-14 -39 -14 -52 0 -12 -7 -28 -15 -35 -8 -7 -15 -24 -15 -37 0 -14 -6 -37 -14
-51 -8 -15 -24 -54 -35 -87 -19 -59 -30 -88 -57 -152 -8 -17 -14 -40 -14 -51
0 -11 -7 -25 -15 -32 -8 -7 -15 -24 -15 -39 0 -14 -7 -35 -15 -45 -8 -11 -15
-29 -15 -41 0 -12 -7 -30 -15 -41 -8 -10 -15 -26 -15 -35 0 -9 -7 -30 -15 -45
-8 -16 -15 -36 -15 -44 0 -8 -7 -24 -15 -34 -8 -11 -15 -32 -15 -47 0 -14 -7
-32 -15 -39 -8 -7 -15 -24 -15 -39 0 -14 -7 -35 -15 -45 -8 -11 -15 -29 -15
-41 0 -12 -7 -30 -15 -41 -8 -10 -15 -28 -15 -39 0 -11 -7 -29 -15 -39 -8 -11
-15 -29 -15 -41 0 -12 -7 -30 -15 -41 -8 -10 -15 -31 -15 -45 0 -15 -7 -32
-15 -39 -8 -7 -15 -25 -15 -39 0 -15 -7 -36 -15 -47 -8 -10 -15 -27 -15 -36 0
-16 -19 -67 -41 -110 -15 -31 -10 -43 39 -89 57 -55 206 -169 221 -169 5 0 14
-6 18 -13 11 -16 114 -85 160 -106 11 -5 24 -15 28 -20 3 -6 15 -11 26 -11 10
0 19 -4 19 -9 0 -5 24 -21 53 -36 60 -30 140 -71 179 -91 14 -8 33 -14 41 -14
8 0 20 -7 27 -15 7 -8 21 -15 30 -15 10 0 31 -6 47 -14 15 -8 39 -18 53 -24
86 -33 138 -51 163 -56 15 -3 38 -9 52 -12 21 -5 25 -3 25 17 0 13 7 33 15 43
8 11 15 29 15 40 0 12 7 30 15 40 8 11 15 32 15 47 0 14 7 32 15 39 8 7 15 23
15 35 0 13 6 36 14 52 27 54 46 104 46 121 0 9 7 26 15 36 8 11 15 32 15 47 0
14 7 32 15 39 8 7 15 23 15 35 0 13 6 36 14 52 8 15 22 48 31 73 9 25 23 60
31 78 8 18 14 40 14 50 0 9 7 26 15 36 8 11 15 29 15 41 0 12 7 30 15 41 8 10
15 29 15 41 0 12 6 34 14 50 8 15 22 48 31 73 9 25 23 60 31 78 8 18 14 40 14
50 0 9 7 26 15 36 8 11 15 29 15 41 0 12 5 26 11 32 6 6 14 26 19 44 5 19 18
59 30 89 45 117 52 136 57 160 3 14 12 34 19 45 8 11 14 32 14 47 0 15 6 31
14 35 7 4 16 22 19 38 2 17 14 55 26 85 43 109 53 135 58 160 3 14 12 34 19
45 8 11 14 31 14 46 0 15 6 32 14 38 8 6 16 24 19 39 3 15 14 52 26 82 41 104
52 135 61 169 5 18 13 38 19 44 6 6 11 20 11 32 0 11 6 29 14 40 7 11 16 31
19 45 3 14 15 50 26 80 44 113 53 136 58 160 3 14 12 34 19 45 8 11 14 31 14
46 0 15 6 32 14 38 8 6 16 24 19 39 6 31 31 99 39 108 8 7 48 -82 48 -106 0
-10 7 -23 15 -30 8 -7 15 -25 15 -39 0 -15 7 -36 15 -47 8 -10 15 -28 15 -39
0 -11 6 -29 14 -40 7 -11 16 -31 19 -45 3 -14 15 -50 27 -80 12 -30 24 -67 27
-82 3 -15 11 -33 19 -39 8 -6 14 -23 14 -38 0 -15 6 -35 14 -46 7 -11 16 -31
19 -45 3 -14 15 -50 26 -80 48 -121 53 -136 58 -162 3 -15 11 -33 19 -39 8 -6
14 -23 14 -38 0 -15 6 -35 14 -46 7 -11 16 -31 19 -45 3 -14 15 -50 26 -80 44
-113 53 -136 58 -160 3 -14 12 -34 19 -45 8 -11 14 -29 14 -40 0 -11 6 -29 14
-40 7 -11 16 -31 19 -45 3 -14 15 -50 26 -80 45 -113 53 -136 58 -160 3 -14
10 -30 15 -37 6 -7 14 -27 18 -45 5 -18 18 -58 30 -88 45 -117 52 -136 57
-160 3 -14 12 -34 19 -45 8 -11 14 -31 14 -46 0 -15 7 -32 15 -39 8 -7 15 -25
15 -40 0 -15 6 -33 14 -39 8 -6 16 -24 19 -39 3 -15 15 -52 27 -82 12 -30 24
-66 27 -80 3 -14 12 -34 19 -45 8 -11 14 -31 14 -46 0 -15 6 -32 14 -38 8 -6
16 -24 19 -39 3 -15 14 -52 26 -82 41 -104 52 -135 61 -169 5 -18 13 -38 19
-44 6 -6 11 -20 11 -32 0 -11 6 -29 14 -40 7 -11 16 -31 19 -45 3 -14 15 -50
26 -80 44 -113 53 -136 58 -160 3 -14 12 -34 19 -45 31 -44 3 -105 -47 -105
-9 0 -22 -7 -29 -15 -7 -8 -21 -15 -30 -15 -10 0 -31 -6 -47 -14 -64 -31 -152
-64 -193 -73 -14 -3 -34 -12 -45 -19 -11 -8 -31 -14 -45 -14 -15 0 -35 -7 -46
-15 -10 -8 -35 -15 -55 -15 -19 0 -44 -7 -55 -15 -10 -8 -36 -15 -56 -15 -21
0 -52 -6 -70 -14 -32 -14 -110 -29 -233 -46 -33 -5 -87 -13 -120 -19 -33 -6
-94 -11 -135 -11 -41 0 -118 -5 -170 -11 -187 -20 -763 32 -905 83 -16 6 -50
13 -75 16 -25 2 -54 11 -65 18 -11 8 -35 14 -55 14 -20 0 -44 6 -55 14 -11 7
-33 16 -50 19 -16 3 -75 21 -130 42 -55 20 -109 39 -120 42 -11 3 -29 12 -40
20 -11 7 -29 13 -41 13 -12 0 -27 7 -34 15 -7 8 -18 15 -26 15 -7 0 -52 20
-101 44 -48 24 -95 47 -103 50 -8 3 -28 15 -45 26 -16 11 -37 23 -45 27 -13 5
-130 76 -205 123 -60 38 -140 95 -157 112 -10 10 -22 18 -26 18 -5 0 -22 12
-40 28 -17 15 -54 45 -83 67 -128 99 -376 347 -499 500 -30 38 -63 77 -73 87
-9 10 -17 21 -17 24 0 3 -20 32 -45 64 -25 32 -45 62 -45 67 0 5 -14 23 -30
41 -17 18 -30 37 -30 41 0 5 -19 37 -43 72 -45 68 -60 95 -161 294 -36 72 -66
137 -66 146 0 9 -6 22 -14 28 -8 6 -16 22 -19 34 -3 12 -15 47 -26 77 -38 96
-52 134 -58 155 -3 11 -11 34 -19 52 -8 17 -14 42 -14 55 0 13 -7 33 -15 44
-8 10 -15 35 -15 54 0 19 -7 48 -15 64 -8 15 -15 37 -15 48 0 10 -6 47 -14 81
-32 136 -46 220 -46 265 0 26 -7 74 -15 107 -18 76 -21 574 -3 680 15 88 16
179 3 183 -5 1 -13 -24 -16 -55 -3 -32 -10 -69 -16 -83 -6 -14 -18 -70 -27
-125 -10 -55 -22 -122 -27 -150 -5 -27 -14 -110 -19 -183 -6 -73 -14 -152 -20
-175 -15 -65 -12 -338 5 -472 8 -66 19 -165 25 -220 17 -157 28 -228 39 -258
6 -16 11 -43 11 -61 0 -19 7 -50 15 -69 8 -20 15 -51 15 -70 0 -18 7 -42 15
-53 8 -10 15 -33 15 -51 0 -18 6 -47 14 -65 7 -18 21 -60 31 -93 9 -33 23 -72
31 -87 8 -14 14 -37 14 -51 0 -13 7 -30 15 -37 8 -7 15 -25 15 -40 0 -15 7
-33 15 -40 8 -7 15 -19 15 -27 0 -8 10 -35 21 -61 12 -26 32 -72 46 -102 13
-30 28 -62 34 -70 5 -8 12 -22 15 -30 3 -8 10 -22 15 -30 5 -8 11 -21 14 -27
3 -7 7 -19 10 -25 3 -7 15 -29 26 -48 12 -19 32 -55 46 -80 13 -25 33 -58 44
-75 10 -16 22 -37 26 -45 4 -8 26 -43 50 -78 24 -35 43 -67 43 -73 0 -5 5 -9
10 -9 6 0 14 -8 17 -17 7 -19 149 -211 168 -228 6 -5 27 -30 45 -55 42 -55 86
-103 213 -233 91 -92 98 -102 92 -131 -7 -35 -29 -96 -51 -139 -8 -16 -14 -39
-14 -52 0 -12 -7 -28 -15 -35 -8 -7 -15 -24 -15 -39 0 -14 -7 -35 -15 -45 -8
-11 -15 -26 -15 -34 0 -8 -6 -28 -14 -45 -7 -18 -21 -54 -31 -82 -9 -27 -23
-64 -31 -82 -8 -17 -14 -39 -14 -50 0 -10 -7 -27 -15 -37 -8 -11 -15 -28 -15
-37 0 -10 -7 -30 -15 -46 -8 -15 -28 -68 -46 -118 -17 -49 -37 -102 -45 -117
-8 -14 -14 -42 -14 -62 l0 -36 699 0 699 0 21 34 c12 18 21 44 21 58 0 13 4
28 9 34 9 9 33 69 52 130 5 17 17 38 27 47 17 15 21 15 55 -3 20 -11 45 -20
56 -20 10 0 24 -7 31 -15 7 -8 24 -15 37 -15 14 0 37 -6 51 -14 41 -20 97 -39
202 -67 25 -7 59 -18 77 -25 17 -8 44 -14 60 -14 16 0 38 -7 49 -15 10 -8 38
-15 61 -15 23 0 54 -5 70 -12 15 -6 51 -14 78 -18 67 -10 187 -29 258 -41 170
-29 731 -34 922 -8 39 6 99 14 135 18 112 14 214 33 253 47 20 8 56 14 80 14
23 0 51 7 61 15 11 8 35 15 53 15 18 0 47 6 65 14 18 7 60 21 93 31 33 9 75
23 93 31 18 8 40 14 50 14 9 0 26 7 36 15 11 8 32 15 47 15 14 0 32 7 39 15 7
8 21 15 31 15 11 0 35 9 55 19 41 22 57 19 71 -12 31 -68 43 -100 43 -115 0
-9 7 -26 15 -36 8 -11 15 -28 15 -38 0 -9 9 -36 21 -58 l21 -40 702 2 701 3
-3 40 c-2 22 -10 47 -17 55 -7 8 -15 26 -18 40 -3 14 -15 50 -27 80 -12 30
-24 67 -27 82 -3 15 -11 33 -19 39 -8 6 -14 23 -14 38 0 15 -6 35 -14 46 -7
11 -16 31 -19 45 -5 24 -14 47 -58 160 -11 30 -23 66 -26 80 -3 14 -12 34 -19
45 -8 11 -14 29 -14 40 0 12 -7 30 -15 41 -8 10 -15 27 -15 36 0 10 -6 32 -14
50 -7 18 -20 49 -28 68 -38 87 -38 86 69 196 117 120 225 239 237 262 5 9 23
33 41 52 46 53 145 188 145 200 0 5 4 10 9 10 7 0 61 78 83 120 5 8 17 29 28
45 11 17 24 39 30 50 6 11 19 34 30 50 11 17 31 53 45 80 32 63 39 75 53 100
7 11 15 27 18 35 3 8 10 22 15 30 5 8 12 22 15 30 16 37 57 128 75 163 10 21
19 46 19 56 0 10 7 24 15 31 8 7 15 25 15 40 0 15 7 33 15 40 8 7 15 24 15 37
0 14 6 37 14 51 8 15 22 54 31 87 10 33 24 75 31 93 8 18 14 47 14 65 0 18 7
41 15 51 8 11 15 35 15 53 0 18 6 50 14 70 19 53 42 187 65 378 6 50 16 137
23 195 17 135 16 465 0 600 -7 58 -18 143 -23 190 -23 186 -47 326 -65 368 -8
18 -14 49 -14 70 -1 20 -7 48 -15 62 -8 14 -14 37 -15 52 0 15 -6 42 -14 60
-25 61 -68 193 -73 225 -3 18 -11 38 -19 44 -8 6 -14 20 -14 31 0 11 -6 32
-14 46 -8 15 -24 52 -36 82 -26 65 -68 159 -81 180 -5 8 -12 22 -15 30 -3 8
-10 22 -15 30 -5 8 -11 21 -14 28 -3 6 -7 18 -10 25 -3 6 -19 35 -36 62 -16
28 -37 64 -45 80 -8 17 -23 44 -34 60 -11 17 -23 37 -27 45 -3 8 -18 31 -32
50 -30 40 -48 69 -58 89 -3 8 -13 22 -20 30 -8 9 -41 54 -75 101 -140 193
-440 520 -588 638 -25 20 -74 62 -110 92 -36 31 -81 66 -100 78 -20 11 -46 32
-59 46 -14 14 -29 26 -34 26 -5 0 -26 14 -47 30 -21 17 -41 30 -45 30 -4 0
-24 13 -44 28 -20 16 -43 32 -51 35 -8 4 -28 16 -45 27 -16 11 -39 24 -50 30
-11 5 -27 14 -35 19 -8 5 -22 12 -30 15 -8 4 -28 15 -45 25 -46 29 -229 121
-241 121 -7 0 -17 7 -24 15 -7 8 -21 15 -30 15 -10 0 -31 6 -47 14 -37 19 -87
40 -143 61 -25 9 -60 23 -78 31 -18 8 -41 14 -50 14 -10 0 -27 7 -38 15 -10 8
-30 15 -44 15 -14 0 -38 7 -54 15 -15 8 -42 15 -58 15 -26 0 -29 -2 -18 -15z"/>
</g>
</svg>
