<?xml version="1.0" standalone="no"?>
<!DOCTYPE svg PUBLIC "-//W3C//DTD SVG 20010904//EN"
 "http://www.w3.org/TR/2001/REC-SVG-20010904/DTD/svg10.dtd">
<svg version="1.0" xmlns="http://www.w3.org/2000/svg"
 width="1160.000000pt" height="1160.000000pt" viewBox="0 0 1160.000000 1160.000000"
 preserveAspectRatio="xMidYMid meet">
<metadata>
Created by potrace 1.14, written by Peter Selinger 2001-2017
</metadata>
<g transform="translate(0.000000,1160.000000) scale(0.100000,-0.100000)"
fill="#000000" stroke="none">
<path d="M7315 11050 c-6 -10 7 -14 35 -10 29 4 29 16 1 18 -17 1 -32 -2 -36
-8z"/>
<path d="M7410 11021 c0 -13 22 -28 55 -35 17 -4 37 -13 45 -20 8 -6 40 -23
70 -36 229 -101 729 -393 874 -511 16 -13 70 -58 120 -99 213 -174 469 -419
616 -589 30 -34 60 -68 66 -75 41 -45 218 -274 239 -311 15 -25 30 -45 35 -45
4 0 10 -11 14 -23 3 -13 19 -39 35 -58 31 -35 91 -130 150 -239 19 -36 41 -71
48 -78 7 -7 13 -20 13 -29 0 -8 9 -28 20 -44 47 -65 268 -565 297 -669 8 -30
19 -60 23 -65 5 -6 12 -31 16 -55 3 -25 12 -54 19 -65 7 -11 16 -41 20 -65 3
-25 15 -70 25 -100 27 -81 89 -365 95 -440 4 -36 12 -94 20 -130 25 -116 34
-293 34 -635 0 -350 -10 -540 -31 -620 -15 -54 -16 -56 -23 -138 -3 -40 -10
-88 -15 -107 -5 -19 -19 -82 -30 -139 -12 -57 -32 -138 -45 -180 -14 -42 -25
-86 -25 -97 0 -12 -8 -43 -19 -70 -10 -27 -23 -67 -29 -89 -60 -223 -287 -726
-453 -1003 -166 -277 -495 -712 -538 -712 -17 0 -51 52 -51 77 0 5 -25 70 -55
145 -30 75 -57 151 -60 169 -3 18 -10 38 -15 45 -6 6 -25 55 -44 110 -72 209
-109 310 -121 329 -7 11 -16 38 -20 59 -3 21 -13 48 -20 60 -8 12 -17 36 -20
55 -3 18 -14 49 -24 70 -10 20 -26 61 -36 91 -9 30 -26 74 -36 98 -11 23 -19
48 -19 55 0 6 -7 25 -15 41 -9 17 -20 50 -26 75 -6 25 -16 52 -23 61 -7 8 -27
58 -44 110 -52 160 -72 212 -81 224 -5 6 -11 25 -14 43 -3 18 -12 42 -21 55
-9 12 -16 30 -16 40 0 10 -11 41 -23 70 -13 29 -34 85 -47 123 -12 39 -45 129
-72 200 -28 72 -54 147 -58 167 -4 20 -15 48 -24 62 -9 14 -33 79 -55 144 -21
65 -48 138 -60 162 -12 24 -21 51 -21 60 0 9 -9 33 -20 55 -11 22 -20 48 -20
58 0 10 -9 39 -21 64 -11 25 -23 58 -26 72 -2 14 -11 37 -19 49 -9 13 -18 35
-20 49 -3 14 -11 38 -19 53 -8 15 -16 39 -19 52 -2 14 -11 39 -20 56 -8 16
-18 45 -21 63 -3 19 -12 40 -19 49 -8 8 -17 33 -20 54 -4 21 -14 49 -22 61 -8
12 -16 32 -19 43 -5 26 -83 238 -101 273 -7 15 -16 42 -19 60 -3 18 -10 38
-15 44 -5 5 -38 96 -74 200 -37 105 -75 210 -86 235 -11 25 -22 57 -24 71 -2
14 -13 40 -24 59 -12 18 -19 37 -16 41 3 5 -13 51 -36 103 -22 52 -40 102 -40
111 0 9 -9 33 -19 54 -11 21 -22 49 -23 62 -2 13 -12 38 -21 55 -9 18 -19 46
-22 64 -3 17 -12 42 -21 55 -8 13 -17 38 -19 55 -3 18 -11 42 -18 54 -8 11
-26 59 -41 106 -16 47 -43 121 -62 165 -18 44 -36 95 -39 114 -3 18 -12 43
-20 55 -8 11 -15 29 -15 39 0 10 -9 36 -21 59 -11 22 -22 50 -25 61 -6 36 -36
56 -93 63 -29 3 -449 7 -932 7 -865 2 -879 1 -893 -18 -8 -11 -19 -29 -24 -40
-30 -64 -53 -123 -55 -142 -2 -12 -10 -36 -19 -55 -9 -18 -23 -55 -31 -83 -9
-27 -43 -121 -76 -208 -33 -88 -63 -173 -67 -190 -3 -17 -15 -46 -25 -64 -11
-19 -19 -41 -19 -51 0 -9 -9 -34 -20 -54 -11 -20 -21 -48 -24 -61 -2 -13 -24
-75 -49 -138 -25 -63 -50 -134 -57 -159 -7 -25 -20 -61 -30 -80 -11 -19 -24
-51 -29 -70 -19 -68 -52 -155 -61 -164 -6 -6 -10 -19 -10 -31 0 -11 -8 -36
-19 -55 -10 -19 -22 -51 -26 -70 -4 -19 -14 -44 -21 -55 -7 -11 -16 -35 -19
-54 -3 -18 -12 -43 -20 -55 -8 -11 -15 -29 -15 -39 0 -11 -7 -33 -15 -51 -8
-17 -32 -81 -54 -141 -21 -61 -55 -157 -76 -215 -20 -58 -41 -109 -46 -114 -5
-6 -9 -19 -9 -29 0 -11 -11 -45 -25 -76 -35 -81 -93 -241 -99 -275 -3 -16 -12
-36 -21 -46 -8 -9 -15 -25 -15 -36 0 -11 -9 -38 -20 -59 -12 -22 -23 -56 -26
-75 -3 -19 -9 -39 -14 -45 -4 -5 -24 -56 -45 -113 -20 -56 -41 -105 -46 -108
-5 -3 -9 -16 -9 -30 0 -14 -8 -41 -19 -62 -10 -20 -22 -53 -26 -72 -4 -19 -13
-47 -21 -61 -7 -15 -15 -39 -18 -54 -3 -15 -11 -37 -19 -49 -8 -12 -18 -37
-22 -56 -4 -19 -22 -69 -41 -111 -18 -43 -35 -91 -37 -109 -3 -17 -10 -37 -17
-44 -6 -8 -19 -42 -30 -77 -10 -35 -44 -129 -75 -209 -31 -80 -63 -170 -72
-200 -8 -30 -21 -62 -28 -70 -7 -8 -15 -29 -18 -46 -3 -17 -12 -45 -21 -62 -9
-17 -16 -39 -16 -49 0 -10 -9 -33 -20 -50 -11 -18 -22 -43 -24 -55 -7 -35 -45
-140 -60 -168 -8 -14 -17 -42 -20 -63 -3 -21 -13 -45 -21 -53 -8 -9 -15 -21
-16 -27 -2 -30 -10 -60 -24 -87 -8 -16 -15 -35 -15 -41 0 -7 -8 -31 -18 -53
-18 -40 -33 -78 -54 -141 -6 -16 -19 -49 -29 -73 -11 -23 -19 -52 -19 -64 0
-11 -9 -35 -19 -52 -11 -17 -23 -47 -26 -66 -3 -18 -12 -45 -20 -59 -7 -14
-23 -56 -35 -94 -12 -37 -28 -79 -36 -95 -20 -38 -18 -47 19 -88 38 -44 204
-179 297 -241 36 -24 83 -57 105 -74 33 -26 89 -61 205 -129 170 -100 421
-226 525 -264 22 -8 92 -34 156 -58 63 -25 146 -52 184 -62 73 -18 85 -14 85
30 0 11 4 24 10 30 9 9 42 96 61 164 5 19 19 51 29 71 11 20 20 46 20 58 0 11
12 46 26 78 26 57 65 164 85 233 5 19 19 51 29 71 11 20 20 44 20 54 0 9 27
84 60 167 33 82 60 156 60 164 0 8 9 31 20 51 11 21 20 45 20 53 0 9 9 35 20
58 11 22 20 48 20 56 0 8 25 75 55 149 30 73 57 149 60 167 3 19 11 40 16 47
6 6 17 31 24 55 8 24 35 99 60 168 26 69 62 170 81 224 19 55 38 104 43 110 5
6 13 29 17 51 4 22 14 51 23 64 9 14 25 57 37 95 23 77 85 246 114 312 10 23
22 59 26 80 3 22 12 46 19 54 7 8 20 38 28 65 17 57 123 349 137 380 10 20 18
43 71 195 16 47 45 126 65 177 20 50 37 98 38 105 1 7 10 30 19 51 9 21 19 53
23 73 3 19 12 40 18 47 7 7 25 52 42 102 16 49 34 89 39 89 13 -2 51 -80 60
-124 4 -19 14 -43 22 -52 9 -10 17 -32 19 -50 2 -18 13 -51 23 -73 20 -43 20
-43 91 -246 25 -74 56 -156 68 -180 12 -25 22 -53 22 -62 0 -9 9 -36 19 -59
11 -24 45 -115 76 -203 31 -88 67 -184 81 -213 13 -29 24 -62 24 -73 0 -11 7
-34 16 -52 9 -17 29 -67 45 -112 28 -82 87 -244 134 -370 40 -107 113 -310
145 -403 16 -45 32 -88 36 -94 4 -7 24 -59 45 -117 20 -59 53 -153 74 -211 20
-58 40 -109 45 -115 4 -5 11 -26 14 -45 3 -19 14 -53 26 -75 11 -21 20 -48 20
-59 0 -11 6 -27 13 -35 13 -15 94 -239 102 -281 2 -10 11 -30 20 -43 8 -13 18
-40 20 -60 3 -19 14 -51 25 -70 12 -19 22 -43 24 -53 2 -11 14 -46 26 -79 12
-33 39 -107 59 -165 21 -58 45 -122 54 -144 10 -21 17 -42 17 -46 0 -4 7 -25
17 -46 15 -37 61 -162 123 -340 15 -45 35 -94 43 -110 8 -16 13 -40 10 -54 -4
-29 -40 -70 -62 -70 -9 0 -31 -10 -50 -21 -19 -12 -45 -23 -58 -25 -12 -2 -58
-20 -100 -38 -43 -19 -114 -46 -158 -61 -44 -14 -93 -32 -110 -39 -16 -8 -46
-17 -65 -21 -19 -4 -46 -13 -60 -20 -14 -7 -44 -15 -67 -18 -23 -4 -58 -13
-78 -21 -19 -8 -57 -17 -83 -20 -26 -2 -60 -10 -77 -16 -38 -15 -145 -39 -198
-46 -23 -3 -67 -9 -97 -15 -30 -5 -75 -11 -99 -14 -24 -3 -47 -7 -50 -10 -8
-4 -137 -15 -241 -20 -41 -2 -120 -7 -175 -11 -139 -10 -417 -5 -555 11 -19 2
-71 6 -115 10 -44 3 -93 8 -110 10 -16 2 -52 7 -80 10 -149 18 -231 33 -340
61 -49 12 -109 26 -132 29 -24 3 -58 12 -78 20 -19 8 -51 17 -72 21 -21 3 -56
12 -78 21 -22 8 -74 25 -115 38 -114 34 -312 106 -335 121 -11 7 -32 15 -47
18 -14 2 -43 13 -65 25 -21 11 -112 56 -203 100 -172 83 -484 268 -620 368
-44 32 -94 68 -112 81 -282 197 -787 704 -974 977 -77 112 -105 152 -140 200
-107 149 -394 677 -394 725 0 10 -8 28 -19 41 -10 13 -25 44 -34 69 -8 25 -43
118 -76 208 -34 90 -66 187 -72 215 -6 29 -15 57 -20 63 -5 6 -14 38 -20 70
-5 33 -16 75 -24 94 -7 20 -16 51 -19 70 -3 19 -10 55 -15 80 -46 227 -60 307
-65 384 -4 49 -9 92 -11 96 -3 4 -7 29 -11 56 -22 177 -21 798 2 907 10 46 13
203 5 216 -11 16 -17 0 -26 -69 -4 -25 -15 -81 -25 -125 -11 -44 -22 -93 -25
-110 -2 -16 -7 -43 -10 -60 -9 -49 -24 -129 -29 -150 -8 -40 -17 -124 -31
-290 -10 -116 -19 -189 -31 -250 -5 -24 -5 -402 0 -460 10 -123 17 -192 21
-205 2 -8 6 -46 10 -85 3 -38 8 -81 10 -95 3 -14 7 -52 11 -85 6 -64 9 -85 18
-155 8 -61 15 -98 27 -144 6 -21 13 -59 16 -85 2 -25 12 -66 20 -91 8 -25 17
-65 20 -90 3 -25 11 -57 19 -71 7 -15 16 -46 20 -70 3 -24 31 -118 61 -209 30
-91 57 -174 59 -185 2 -11 13 -38 24 -60 11 -21 20 -48 20 -59 0 -11 7 -27 15
-36 9 -10 17 -26 19 -36 11 -51 221 -497 276 -584 5 -8 40 -67 76 -130 37 -63
89 -148 116 -188 26 -41 48 -77 48 -82 0 -5 8 -15 18 -22 15 -11 55 -65 87
-117 59 -96 272 -349 449 -534 83 -87 158 -172 168 -188 15 -28 15 -34 -2 -92
-10 -34 -29 -87 -43 -118 -14 -31 -27 -69 -30 -86 -3 -17 -12 -41 -20 -54 -8
-13 -18 -38 -22 -56 -3 -17 -15 -48 -26 -69 -10 -21 -19 -44 -19 -50 0 -7 -25
-77 -55 -157 -30 -79 -55 -150 -55 -158 0 -8 -9 -32 -20 -54 -11 -22 -20 -43
-20 -48 0 -7 -57 -160 -130 -348 -18 -43 -30 -94 -30 -120 l0 -45 923 1 c507
1 928 2 935 3 17 3 62 99 62 134 0 15 4 29 8 32 5 3 21 38 36 78 64 172 78
186 151 148 21 -11 46 -20 55 -20 8 0 30 -9 48 -20 18 -11 49 -23 70 -26 20
-3 52 -14 72 -24 19 -9 76 -29 125 -44 50 -15 131 -41 180 -56 50 -16 107 -31
128 -34 21 -4 50 -12 65 -20 15 -7 56 -16 90 -20 35 -4 75 -11 88 -17 14 -5
39 -11 57 -14 18 -3 57 -10 87 -15 102 -18 325 -53 355 -56 233 -26 1160 -26
1204 0 3 2 31 7 61 10 30 4 69 8 85 11 17 3 48 7 70 10 112 15 177 28 244 46
40 11 99 22 130 26 31 3 67 11 81 18 15 8 46 16 70 20 51 7 411 119 451 140
14 8 40 17 58 20 18 3 50 14 70 24 50 27 143 61 163 61 21 0 49 -48 78 -135
13 -39 32 -88 42 -111 10 -22 18 -47 18 -55 0 -8 13 -36 28 -64 l27 -50 700 2
c385 1 805 2 933 2 l232 1 0 38 c0 20 -11 60 -23 87 -13 28 -43 109 -66 180
-24 72 -50 137 -57 146 -8 8 -14 24 -14 35 -1 10 -7 35 -14 54 -32 82 -163
442 -183 500 -8 25 -21 59 -28 75 -19 42 -85 223 -98 267 -15 51 -4 68 129
207 61 64 137 145 170 180 77 83 268 322 347 435 34 48 77 109 95 135 142 200
439 762 497 939 10 28 21 52 25 52 5 0 11 19 15 42 4 24 13 50 20 58 7 8 18
35 24 60 5 25 33 110 61 190 27 80 53 167 56 195 4 27 13 59 20 70 7 11 18 50
24 87 5 37 15 79 20 94 6 14 19 76 30 137 26 151 34 201 54 377 4 30 11 87 16
125 21 159 24 232 25 490 0 243 -7 415 -18 470 -3 11 -8 50 -11 87 -4 37 -9
77 -11 90 -2 13 -6 46 -10 73 -17 142 -48 324 -66 388 -11 39 -24 100 -29 134
-5 34 -16 78 -24 98 -9 20 -17 53 -20 73 -3 20 -21 82 -41 137 -20 55 -47 140
-60 189 -14 49 -31 96 -40 106 -8 9 -15 25 -15 35 0 10 -19 61 -41 114 -23 53
-55 128 -72 166 -77 182 -308 606 -386 710 -21 28 -45 64 -54 82 -9 17 -40 62
-68 100 -28 37 -61 81 -73 96 -59 80 -238 301 -257 317 -3 3 -47 51 -97 107
-161 177 -327 338 -497 479 -91 76 -182 149 -203 162 -20 14 -50 37 -67 52
-56 51 -350 238 -535 340 -167 93 -360 190 -376 190 -3 0 -17 9 -31 20 -14 11
-34 20 -43 20 -10 0 -49 14 -87 31 -110 50 -287 118 -324 126 -19 3 -44 13
-57 21 -12 8 -37 16 -55 18 -18 2 -50 11 -72 20 -46 19 -105 27 -105 15z"/>
</g>
</svg>
